# xmcd
#
# Track frame offsets:
#	150
#	9317
#	18836
#	32763
#	42400
#	52585
#	62202
#	71821
#	81564
#	90196
#
# Disc length: 1307 seconds
#
# Revision: 0
# Processed by: cddbd v1.5.2PL0 Copyright (c) Steve Scherf et al.
# Submitted via: EZCDAudioConverter 1.0.8.1
#
DISCID=7305190a
DTITLE=Buck Owens and Susan Raye - Buck Owens and Susan Raye - Merry Christmas Fro
DTITLE=m Buck and Susan
DYEAR=1900
DGENRE=Country
TTITLE0=One Of Everything You Got
TTITLE1=Home On Christmas Day
TTITLE2=All I Want For Christmas Is My Daddy
TTITLE3=A Very Merry Christmas
TTITLE4=It's Not What You Give
TTITLE5=Good Old Fashion Country Christmas
TTITLE6=Christmas Ain't Christmas Dear Without You
TTITLE7=Santa Looked A Lot Like Daddy
TTITLE8=Santa's Gonna Come In A StageCoach
TTITLE9=Tomorrow Is Christmas Day
EXTD=
EXTT0=
EXTT1=
EXTT2=
EXTT3=
EXTT4=
EXTT5=
EXTT6=
EXTT7=
EXTT8=
EXTT9=
PLAYORDER=
